<svg width="25" height="24" viewBox="0 0 25 24" fill="none" xmlns="http://www.w3.org/2000/svg">
<path d="M23.3103 12.75L14 3.43969C13.8612 3.2998 13.696 3.18889 13.514 3.11341C13.332 3.03792 13.1368 2.99938 12.9397 3.00001H4.25001C4.0511 3.00001 3.86033 3.07903 3.71968 3.21968C3.57903 3.36033 3.50001 3.5511 3.50001 3.75001V12.4397C3.49938 12.6368 3.53792 12.832 3.61341 13.014C3.68889 13.196 3.7998 13.3612 3.93969 13.5L13.25 22.8103C13.3893 22.9496 13.5547 23.0602 13.7367 23.1356C13.9187 23.211 14.1138 23.2498 14.3108 23.2498C14.5078 23.2498 14.7029 23.211 14.8849 23.1356C15.0669 23.0602 15.2323 22.9496 15.3716 22.8103L23.3103 14.8716C23.4496 14.7323 23.5602 14.5669 23.6356 14.3849C23.711 14.2029 23.7498 14.0078 23.7498 13.8108C23.7498 13.6138 23.711 13.4187 23.6356 13.2367C23.5602 13.0547 23.4496 12.8893 23.3103 12.75ZM14.3103 21.75L5.00001 12.4397V4.50001H12.9397L22.25 13.8103L14.3103 21.75ZM9.50001 7.87501C9.50001 8.09751 9.43403 8.31502 9.31041 8.50002C9.18679 8.68503 9.01109 8.82922 8.80553 8.91437C8.59996 8.99952 8.37376 9.0218 8.15553 8.97839C7.9373 8.93498 7.73685 8.82784 7.57951 8.6705C7.42218 8.51317 7.31503 8.31271 7.27162 8.09448C7.22822 7.87626 7.25049 7.65006 7.33564 7.44449C7.42079 7.23892 7.56499 7.06322 7.74999 6.9396C7.935 6.81599 8.1525 6.75001 8.37501 6.75001C8.67338 6.75001 8.95952 6.86853 9.1705 7.07951C9.38148 7.29049 9.50001 7.57664 9.50001 7.87501Z" fill="white"/>
</svg>
