<svg width="41" height="41" viewBox="0 0 41 41" fill="none" xmlns="http://www.w3.org/2000/svg">
<path d="M40.342 34.7807C40.5518 34.9898 40.7182 35.2382 40.8318 35.5117C40.9453 35.7851 41.0038 36.0784 41.0038 36.3745C41.0038 36.6706 40.9453 36.9638 40.8318 37.2373C40.7182 37.5108 40.5518 37.7592 40.342 37.9682L37.9626 40.342C37.7536 40.5518 37.5052 40.7182 37.2317 40.8318C36.9582 40.9453 36.665 41.0038 36.3689 41.0038C36.0727 41.0038 35.7795 40.9453 35.506 40.8318C35.2325 40.7182 34.9842 40.5518 34.7751 40.342L24.1701 29.7351L20.5626 39.142C20.5626 39.1607 20.5476 39.1814 20.5382 39.202C20.3087 39.7372 19.9267 40.1931 19.44 40.5128C18.9532 40.8326 18.3831 41.002 17.8007 41.0001H17.6526C17.0453 40.9744 16.4604 40.7628 15.9772 40.3939C15.494 40.0251 15.1357 39.5167 14.9507 38.9376L5.15012 8.92262C4.98188 8.39769 4.96151 7.83656 5.09127 7.30081C5.22102 6.76507 5.49587 6.27543 5.88565 5.88565C6.27543 5.49587 6.76507 5.22102 7.30081 5.09127C7.83656 4.96151 8.39769 4.98188 8.92262 5.15012L38.9376 14.9507C39.5113 15.1426 40.0135 15.5035 40.3785 15.9859C40.7434 16.4683 40.954 17.0498 40.9826 17.654C41.0111 18.2582 40.8564 18.857 40.5387 19.3717C40.2209 19.8864 39.755 20.293 39.202 20.5382L39.142 20.5626L29.7351 24.1757L40.342 34.7807ZM17.0001 5.00012C17.3979 5.00012 17.7795 4.84209 18.0608 4.56078C18.3421 4.27948 18.5001 3.89795 18.5001 3.50012V2.00012C18.5001 1.6023 18.3421 1.22077 18.0608 0.939463C17.7795 0.658159 17.3979 0.500123 17.0001 0.500123C16.6023 0.500123 16.2208 0.658159 15.9395 0.939463C15.6582 1.22077 15.5001 1.6023 15.5001 2.00012V3.50012C15.5001 3.89795 15.6582 4.27948 15.9395 4.56078C16.2208 4.84209 16.6023 5.00012 17.0001 5.00012ZM2.00012 18.5001H3.50012C3.89795 18.5001 4.27948 18.3421 4.56078 18.0608C4.84209 17.7795 5.00012 17.3979 5.00012 17.0001C5.00012 16.6023 4.84209 16.2208 4.56078 15.9395C4.27948 15.6582 3.89795 15.5001 3.50012 15.5001H2.00012C1.6023 15.5001 1.22077 15.6582 0.939463 15.9395C0.658159 16.2208 0.500123 16.6023 0.500123 17.0001C0.500123 17.3979 0.658159 17.7795 0.939463 18.0608C1.22077 18.3421 1.6023 18.5001 2.00012 18.5001ZM22.3289 6.34262C22.5051 6.4309 22.6971 6.48357 22.8937 6.4976C23.0904 6.51164 23.2879 6.48678 23.4749 6.42444C23.6619 6.3621 23.8348 6.2635 23.9837 6.13428C24.1326 6.00506 24.2546 5.84776 24.3426 5.67137L25.8426 2.67137C26.0207 2.31557 26.05 1.90362 25.9243 1.52614C25.7986 1.14867 25.5281 0.836588 25.1723 0.658561C24.8165 0.480534 24.4046 0.451142 24.0271 0.57685C23.6496 0.702558 23.3375 0.973069 23.1595 1.32887L21.6595 4.32887C21.5712 4.50504 21.5184 4.69688 21.5042 4.89345C21.49 5.09001 21.5147 5.28744 21.5769 5.47445C21.6391 5.66146 21.7375 5.83439 21.8665 5.98336C21.9955 6.13232 22.1526 6.25441 22.3289 6.34262ZM4.32887 21.6595L1.32887 23.1595C0.973069 23.3375 0.702558 23.6496 0.57685 24.0271C0.451142 24.4046 0.480534 24.8165 0.658561 25.1723C0.836588 25.5281 1.14867 25.7986 1.52614 25.9243C1.90362 26.05 2.31557 26.0207 2.67137 25.8426L5.67137 24.3426C5.84755 24.2545 6.00464 24.1325 6.13367 23.9836C6.2627 23.8348 6.36115 23.662 6.4234 23.475C6.48564 23.2881 6.51046 23.0908 6.49644 22.8943C6.48242 22.6978 6.42984 22.506 6.34169 22.3298C6.25354 22.1536 6.13155 21.9965 5.98269 21.8675C5.83383 21.7385 5.66101 21.64 5.47411 21.5778C5.2872 21.5155 5.08986 21.4907 4.89336 21.5047C4.69686 21.5188 4.50505 21.5713 4.32887 21.6595Z" fill="#E8FFFD"/>
</svg>
