<svg width="24" height="24" viewBox="0 0 24 24" fill="none" xmlns="http://www.w3.org/2000/svg">
<path d="M10.5 13.8735C10.5 14.0724 10.421 14.2632 10.2803 14.4039C10.1397 14.5445 9.94891 14.6235 9.75 14.6235H6C5.80109 14.6235 5.61032 14.5445 5.46967 14.4039C5.32902 14.2632 5.25 14.0724 5.25 13.8735C5.25 13.6746 5.32902 13.4839 5.46967 13.3432C5.61032 13.2026 5.80109 13.1235 6 13.1235H9.75C9.94891 13.1235 10.1397 13.2026 10.2803 13.3432C10.421 13.4839 10.5 13.6746 10.5 13.8735ZM23.25 10.4985V16.1235C23.25 16.5214 23.092 16.9029 22.8107 17.1842C22.5294 17.4655 22.1478 17.6235 21.75 17.6235H13.5V20.6235C13.5 20.8224 13.421 21.0132 13.2803 21.1539C13.1397 21.2945 12.9489 21.3735 12.75 21.3735C12.5511 21.3735 12.3603 21.2945 12.2197 21.1539C12.079 21.0132 12 20.8224 12 20.6235V17.6235H3.75C3.35218 17.6235 2.97064 17.4655 2.68934 17.1842C2.40804 16.9029 2.25 16.5214 2.25 16.1235V10.4985C2.25174 9.00723 2.84493 7.57749 3.89944 6.52298C4.95396 5.46846 6.38369 4.87527 7.875 4.87354H15V1.87354C15 1.67462 15.079 1.48386 15.2197 1.34321C15.3603 1.20255 15.5511 1.12354 15.75 1.12354H18.75C18.9489 1.12354 19.1397 1.20255 19.2803 1.34321C19.421 1.48386 19.5 1.67462 19.5 1.87354C19.5 2.07245 19.421 2.26321 19.2803 2.40387C19.1397 2.54452 18.9489 2.62354 18.75 2.62354H16.5V4.87354H17.625C19.1163 4.87527 20.546 5.46846 21.6006 6.52298C22.6551 7.57749 23.2483 9.00723 23.25 10.4985ZM12 16.1235V10.4985C12 9.40452 11.5654 8.35531 10.7918 7.58172C10.0182 6.80813 8.96902 6.37354 7.875 6.37354C6.78098 6.37354 5.73177 6.80813 4.95818 7.58172C4.1846 8.35531 3.75 9.40452 3.75 10.4985V16.1235H12ZM21.75 10.4985C21.7488 9.4049 21.3138 8.35641 20.5404 7.58309C19.7671 6.80977 18.7186 6.37478 17.625 6.37354H16.5V13.1235C16.5 13.3224 16.421 13.5132 16.2803 13.6539C16.1397 13.7945 15.9489 13.8735 15.75 13.8735C15.5511 13.8735 15.3603 13.7945 15.2197 13.6539C15.079 13.5132 15 13.3224 15 13.1235V6.37354H11.6953C12.2646 6.89925 12.7189 7.53717 13.0295 8.24711C13.3401 8.95705 13.5003 9.72362 13.5 10.4985V16.1235H21.75V10.4985Z" fill="#E8FFFD"/>
</svg>
