<svg width="19" height="20" viewBox="0 0 19 20" fill="none" xmlns="http://www.w3.org/2000/svg">
<path d="M17.25 10.5V18C17.25 18.3978 17.092 18.7794 16.8107 19.0607C16.5294 19.342 16.1478 19.5 15.75 19.5H1.5C1.10218 19.5 0.720644 19.342 0.43934 19.0607C0.158035 18.7794 0 18.3978 0 18V3.75C0 3.35218 0.158035 2.97064 0.43934 2.68934C0.720644 2.40804 1.10218 2.25 1.5 2.25H9C9.19891 2.25 9.38968 2.32902 9.53033 2.46967C9.67098 2.61032 9.75 2.80109 9.75 3C9.75 3.19891 9.67098 3.38968 9.53033 3.53033C9.38968 3.67098 9.19891 3.75 9 3.75H1.5V18H15.75V10.5C15.75 10.3011 15.829 10.1103 15.9697 9.96967C16.1103 9.82902 16.3011 9.75 16.5 9.75C16.6989 9.75 16.8897 9.82902 17.0303 9.96967C17.171 10.1103 17.25 10.3011 17.25 10.5ZM15.375 0.75C14.7075 0.75 14.055 0.94794 13.5 1.31879C12.9449 1.68964 12.5124 2.21674 12.2569 2.83344C12.0015 3.45014 11.9346 4.12874 12.0648 4.78343C12.1951 5.43812 12.5165 6.03948 12.9885 6.51149C13.4605 6.98349 14.0619 7.30493 14.7166 7.43515C15.3713 7.56538 16.0499 7.49854 16.6666 7.24309C17.2833 6.98765 17.8104 6.55507 18.1812 6.00005C18.5521 5.44503 18.75 4.79251 18.75 4.125C18.75 3.22989 18.3944 2.37145 17.7615 1.73851C17.1285 1.10558 16.2701 0.75 15.375 0.75Z" fill="#E8FFFD"/>
</svg>
