<svg width="20" height="17" viewBox="0 0 20 17" fill="none" xmlns="http://www.w3.org/2000/svg">
<path d="M18.5 -0.00146484H2C1.60218 -0.00146484 1.22064 0.15657 0.93934 0.437875C0.658035 0.719179 0.5 1.10071 0.5 1.49854V14.9985C0.5 15.3964 0.658035 15.7779 0.93934 16.0592C1.22064 16.3405 1.60218 16.4985 2 16.4985H18.5C18.8978 16.4985 19.2794 16.3405 19.5607 16.0592C19.842 15.7779 20 15.3964 20 14.9985V1.49854C20 1.10071 19.842 0.719179 19.5607 0.437875C19.2794 0.15657 18.8978 -0.00146484 18.5 -0.00146484ZM18.5 14.9985H2V1.49854H18.5V14.9985ZM15.5 5.24854C15.5 5.44745 15.421 5.63821 15.2803 5.77886C15.1397 5.91952 14.9489 5.99854 14.75 5.99854H5.75C5.55109 5.99854 5.36032 5.91952 5.21967 5.77886C5.07902 5.63821 5 5.44745 5 5.24854C5 5.04962 5.07902 4.85886 5.21967 4.71821C5.36032 4.57755 5.55109 4.49854 5.75 4.49854H14.75C14.9489 4.49854 15.1397 4.57755 15.2803 4.71821C15.421 4.85886 15.5 5.04962 15.5 5.24854ZM15.5 8.24854C15.5 8.44745 15.421 8.63821 15.2803 8.77887C15.1397 8.91952 14.9489 8.99854 14.75 8.99854H5.75C5.55109 8.99854 5.36032 8.91952 5.21967 8.77887C5.07902 8.63821 5 8.44745 5 8.24854C5 8.04962 5.07902 7.85886 5.21967 7.71821C5.36032 7.57755 5.55109 7.49854 5.75 7.49854H14.75C14.9489 7.49854 15.1397 7.57755 15.2803 7.71821C15.421 7.85886 15.5 8.04962 15.5 8.24854ZM15.5 11.2485C15.5 11.4474 15.421 11.6382 15.2803 11.7789C15.1397 11.9195 14.9489 11.9985 14.75 11.9985H5.75C5.55109 11.9985 5.36032 11.9195 5.21967 11.7789C5.07902 11.6382 5 11.4474 5 11.2485C5 11.0496 5.07902 10.8589 5.21967 10.7182C5.36032 10.5776 5.55109 10.4985 5.75 10.4985H14.75C14.9489 10.4985 15.1397 10.5776 15.2803 10.7182C15.421 10.8589 15.5 11.0496 15.5 11.2485Z" fill="#E8FFFD"/>
</svg>
