<svg width="24" height="24" viewBox="0 0 24 24" fill="none" xmlns="http://www.w3.org/2000/svg">
<path d="M4.2002 4.49854V17.9985C4.2002 18.1974 4.12118 18.3882 3.98053 18.5289C3.83987 18.6695 3.64911 18.7485 3.4502 18.7485C3.25128 18.7485 3.06052 18.6695 2.91987 18.5289C2.77921 18.3882 2.7002 18.1974 2.7002 17.9985V4.49854C2.7002 4.29962 2.77921 4.10886 2.91987 3.96821C3.06052 3.82755 3.25128 3.74854 3.4502 3.74854C3.64911 3.74854 3.83987 3.82755 3.98053 3.96821C4.12118 4.10886 4.2002 4.29962 4.2002 4.49854ZM12.8252 9.60791L10.9502 10.2173V8.24854C10.9502 8.04962 10.8712 7.85886 10.7305 7.71821C10.5899 7.57755 10.3991 7.49854 10.2002 7.49854C10.0013 7.49854 9.81052 7.57755 9.66987 7.71821C9.52921 7.85886 9.4502 8.04962 9.4502 8.24854V10.2173L7.5752 9.60791C7.38598 9.54575 7.17982 9.5613 7.00207 9.65114C6.82432 9.74098 6.68954 9.89776 6.62738 10.087C6.56522 10.2762 6.58077 10.4823 6.67062 10.6601C6.76046 10.8378 6.91723 10.9726 7.10645 11.0348L8.98145 11.6432L7.82457 13.237C7.76343 13.3164 7.71884 13.4073 7.69343 13.5043C7.66801 13.6012 7.6623 13.7023 7.67661 13.8015C7.69093 13.9007 7.72499 13.9961 7.77677 14.0819C7.82856 14.1677 7.89703 14.2423 7.97813 14.3012C8.05923 14.3601 8.15132 14.4022 8.24895 14.4249C8.34658 14.4476 8.44777 14.4505 8.54655 14.4335C8.64533 14.4164 8.73969 14.3797 8.82404 14.3256C8.9084 14.2714 8.98105 14.2009 9.03769 14.1182L10.1946 12.5245L11.3514 14.1182C11.4081 14.2009 11.4807 14.2714 11.5651 14.3256C11.6495 14.3797 11.7438 14.4164 11.8426 14.4335C11.9414 14.4505 12.0426 14.4476 12.1402 14.4249C12.2378 14.4022 12.3299 14.3601 12.411 14.3012C12.4921 14.2423 12.5606 14.1677 12.6124 14.0819C12.6642 13.9961 12.6982 13.9007 12.7125 13.8015C12.7268 13.7023 12.7211 13.6012 12.6957 13.5043C12.6703 13.4073 12.6257 13.3164 12.5646 13.237L11.4077 11.6432L13.2827 11.0348C13.4636 10.9675 13.6115 10.8331 13.6958 10.6596C13.7802 10.486 13.7943 10.2866 13.7354 10.1028C13.6765 9.9191 13.549 9.76512 13.3795 9.67295C13.21 9.58077 13.0115 9.55747 12.8252 9.60791ZM22.7627 10.0898C22.7012 9.90229 22.5684 9.74658 22.3929 9.65638C22.2174 9.56618 22.0134 9.54877 21.8252 9.60791L19.9502 10.2173V8.24854C19.9502 8.04962 19.8712 7.85886 19.7305 7.71821C19.5899 7.57755 19.3991 7.49854 19.2002 7.49854C19.0013 7.49854 18.8105 7.57755 18.6699 7.71821C18.5292 7.85886 18.4502 8.04962 18.4502 8.24854V10.2173L16.5752 9.60885C16.386 9.54731 16.1801 9.56346 16.0028 9.65374C15.8254 9.74402 15.6913 9.90104 15.6297 10.0903C15.5682 10.2795 15.5843 10.4854 15.6746 10.6627C15.7649 10.84 15.9219 10.9742 16.1111 11.0357L17.9861 11.6442L16.8293 13.2379C16.7681 13.3173 16.7235 13.4082 16.6981 13.5052C16.6727 13.6022 16.667 13.7032 16.6813 13.8025C16.6956 13.9017 16.7297 13.997 16.7815 14.0828C16.8332 14.1687 16.9017 14.2432 16.9828 14.3021C17.0639 14.3611 17.156 14.4031 17.2536 14.4258C17.3513 14.4485 17.4525 14.4515 17.5512 14.4344C17.65 14.4173 17.7444 14.3807 17.8287 14.3265C17.9131 14.2724 17.9857 14.2019 18.0424 14.1192L19.1993 12.5254L20.3561 14.1192C20.4128 14.2019 20.4854 14.2724 20.5698 14.3265C20.6541 14.3807 20.7485 14.4173 20.8473 14.4344C20.9461 14.4515 21.0472 14.4485 21.1449 14.4258C21.2425 14.4031 21.3346 14.3611 21.4157 14.3021C21.4968 14.2432 21.5653 14.1687 21.6171 14.0828C21.6688 13.997 21.7029 13.9017 21.7172 13.8025C21.7315 13.7032 21.7258 13.6022 21.7004 13.5052C21.675 13.4082 21.6304 13.3173 21.5693 13.2379L20.4124 11.6442L22.2874 11.0357C22.4756 10.973 22.6313 10.8382 22.7204 10.6609C22.8095 10.4836 22.8247 10.2783 22.7627 10.0898Z" fill="#E8FFFD"/>
</svg>
