<svg width="23" height="18" viewBox="0 0 23 18" fill="none" xmlns="http://www.w3.org/2000/svg">
<path d="M22.4503 10.1002C22.3715 10.1593 22.2818 10.2023 22.1864 10.2267C22.091 10.2511 21.9917 10.2566 21.8942 10.2426C21.7967 10.2287 21.7029 10.1957 21.6182 10.1455C21.5334 10.0953 21.4594 10.029 21.4003 9.95017C20.9482 9.34254 20.3598 8.84953 19.6824 8.51084C19.0051 8.17215 18.2576 7.99723 17.5003 8.00017C17.3528 8.00015 17.2086 7.95666 17.0857 7.87512C16.9628 7.79358 16.8667 7.67761 16.8093 7.54173C16.7704 7.44946 16.7504 7.35032 16.7504 7.25017C16.7504 7.15002 16.7704 7.05088 16.8093 6.9586C16.8667 6.82272 16.9628 6.70676 17.0857 6.62522C17.2086 6.54368 17.3528 6.50018 17.5003 6.50017C17.9211 6.50013 18.3335 6.38208 18.6906 6.15942C19.0476 5.93677 19.3351 5.61844 19.5204 5.24058C19.7056 4.86273 19.7812 4.4405 19.7385 4.02185C19.6958 3.6032 19.5365 3.20493 19.2788 2.87225C19.0211 2.53958 18.6753 2.28584 18.2806 2.13987C17.8859 1.9939 17.4582 1.96154 17.046 2.04646C16.6338 2.13139 16.2538 2.3302 15.9489 2.62031C15.6441 2.91043 15.4267 3.28021 15.3215 3.68767C15.2969 3.78308 15.2537 3.87271 15.1945 3.95144C15.1352 4.03017 15.061 4.09645 14.9761 4.14651C14.8913 4.19656 14.7974 4.22941 14.6998 4.24318C14.6022 4.25694 14.5029 4.25135 14.4075 4.22673C14.3121 4.20211 14.2224 4.15893 14.1437 4.09967C14.065 4.04041 13.9987 3.96622 13.9486 3.88134C13.8986 3.79646 13.8657 3.70256 13.852 3.60498C13.8382 3.50741 13.8438 3.40808 13.8684 3.31267C14.0144 2.74765 14.2903 2.22451 14.6741 1.78487C15.0579 1.34523 15.539 1.00124 16.0791 0.780246C16.6192 0.559256 17.2034 0.467375 17.7853 0.511915C18.3672 0.556454 18.9307 0.736184 19.4309 1.0368C19.931 1.33742 20.3542 1.75063 20.6666 2.24356C20.979 2.73648 21.172 3.29552 21.2303 3.87618C21.2887 4.45684 21.2107 5.0431 21.0026 5.58831C20.7944 6.13352 20.4619 6.62263 20.0315 7.01673C21.0514 7.45829 21.9379 8.15899 22.6031 9.04923C22.6622 9.12822 22.7051 9.2181 22.7294 9.31371C22.7537 9.40932 22.7589 9.50878 22.7447 9.6064C22.7305 9.70403 22.6972 9.79789 22.6467 9.88262C22.5962 9.96735 22.5294 10.0413 22.4503 10.1002ZM17.399 15.8752C17.4533 15.9605 17.4897 16.056 17.5062 16.1558C17.5226 16.2556 17.5186 16.3577 17.4946 16.456C17.4705 16.5542 17.4268 16.6466 17.3661 16.7275C17.3054 16.8084 17.229 16.8762 17.1414 16.9268C17.0539 16.9775 16.9569 17.0099 16.8565 17.022C16.7561 17.0342 16.6543 17.026 16.5571 16.9978C16.46 16.9696 16.3695 16.9221 16.2912 16.8581C16.213 16.794 16.1484 16.7148 16.1015 16.6252C15.6291 15.8252 14.9562 15.1622 14.1493 14.7016C13.3424 14.241 12.4294 13.9988 11.5003 13.9988C10.5712 13.9988 9.65816 14.241 8.85126 14.7016C8.04436 15.1622 7.37149 15.8252 6.89903 16.6252C6.85215 16.7148 6.78762 16.794 6.70932 16.8581C6.63102 16.9221 6.54058 16.9696 6.44344 16.9978C6.34629 17.026 6.24445 17.0342 6.14403 17.022C6.04362 17.0099 5.94671 16.9775 5.85914 16.9268C5.77156 16.8762 5.69513 16.8084 5.63445 16.7275C5.57376 16.6466 5.53007 16.5542 5.50601 16.456C5.48194 16.3577 5.478 16.2556 5.49441 16.1558C5.51083 16.056 5.54727 15.9605 5.60153 15.8752C6.32866 14.6258 7.43734 13.6427 8.76466 13.0702C8.01778 12.4983 7.46887 11.7068 7.1951 10.8069C6.92132 9.90695 6.93644 8.94385 7.23833 8.05295C7.54022 7.16206 8.1137 6.38816 8.87816 5.84005C9.64262 5.29194 10.5596 4.99716 11.5003 4.99716C12.4409 4.99716 13.3579 5.29194 14.1224 5.84005C14.8869 6.38816 15.4603 7.16206 15.7622 8.05295C16.0641 8.94385 16.0792 9.90695 15.8055 10.8069C15.5317 11.7068 14.9828 12.4983 14.2359 13.0702C15.5632 13.6427 16.6719 14.6258 17.399 15.8752ZM11.5003 12.5002C12.0936 12.5002 12.6736 12.3242 13.167 11.9946C13.6603 11.6649 14.0449 11.1964 14.2719 10.6482C14.499 10.1 14.5584 9.49684 14.4426 8.9149C14.3269 8.33295 14.0412 7.7984 13.6216 7.37885C13.202 6.95929 12.6675 6.67357 12.0856 6.55781C11.5036 6.44206 10.9004 6.50147 10.3522 6.72853C9.80406 6.95559 9.33552 7.34011 9.00588 7.83346C8.67623 8.3268 8.50028 8.90682 8.50028 9.50017C8.50028 10.2958 8.81635 11.0589 9.37896 11.6215C9.94157 12.1841 10.7046 12.5002 11.5003 12.5002ZM6.25028 7.25017C6.25028 7.05125 6.17127 6.86049 6.03061 6.71984C5.88996 6.57919 5.6992 6.50017 5.50028 6.50017C5.07947 6.50013 4.66709 6.38208 4.31 6.15942C3.95292 5.93677 3.66543 5.61844 3.48019 5.24058C3.29495 4.86273 3.21939 4.4405 3.26209 4.02185C3.3048 3.6032 3.46405 3.20493 3.72176 2.87225C3.97947 2.53958 4.32531 2.28584 4.72 2.13987C5.11469 1.9939 5.54241 1.96154 5.95457 2.04646C6.36672 2.13139 6.7468 2.3302 7.05164 2.62031C7.35647 2.91043 7.57383 3.28021 7.67903 3.68767C7.72876 3.88036 7.853 4.04541 8.02442 4.14651C8.19584 4.2476 8.4004 4.27646 8.5931 4.22673C8.78579 4.177 8.95084 4.05276 9.05194 3.88134C9.15303 3.70992 9.18189 3.50536 9.13216 3.31267C8.98614 2.74765 8.71026 2.22451 8.32648 1.78487C7.9427 1.34523 7.46161 1.00124 6.92149 0.780246C6.38137 0.559256 5.79712 0.467375 5.21524 0.511915C4.63336 0.556454 4.06991 0.736184 3.56972 1.0368C3.06952 1.33742 2.64639 1.75063 2.33399 2.24356C2.02159 2.73648 1.82855 3.29552 1.77022 3.87618C1.7119 4.45684 1.7899 5.0431 1.99801 5.58831C2.20613 6.13352 2.53862 6.62263 2.96903 7.01673C1.95024 7.45871 1.0647 8.15938 0.400284 9.04923C0.280813 9.20836 0.229448 9.40843 0.257491 9.60543C0.285533 9.80243 0.390686 9.98023 0.549816 10.0997C0.708946 10.2192 0.909018 10.2705 1.10602 10.2425C1.30302 10.2144 1.48081 10.1093 1.60028 9.95017C2.05233 9.34254 2.64073 8.84953 3.31812 8.51084C3.99551 8.17215 4.74295 7.99723 5.50028 8.00017C5.6992 8.00017 5.88996 7.92115 6.03061 7.7805C6.17127 7.63984 6.25028 7.44908 6.25028 7.25017Z" fill="white"/>
</svg>
