<svg width="23" height="17" viewBox="0 0 23 17" fill="none" xmlns="http://www.w3.org/2000/svg">
<path d="M22.4998 9.74984C22.4998 9.94876 22.4207 10.1395 22.2801 10.2802C22.1394 10.4208 21.9487 10.4998 21.7498 10.4998H20.2498V11.9998C20.2498 12.1988 20.1707 12.3895 20.0301 12.5302C19.8894 12.6708 19.6987 12.7498 19.4998 12.7498C19.3008 12.7498 19.1101 12.6708 18.9694 12.5302C18.8288 12.3895 18.7498 12.1988 18.7498 11.9998V10.4998H17.2498C17.0508 10.4998 16.8601 10.4208 16.7194 10.2802C16.5788 10.1395 16.4998 9.94876 16.4998 9.74984C16.4998 9.55093 16.5788 9.36016 16.7194 9.21951C16.8601 9.07886 17.0508 8.99984 17.2498 8.99984H18.7498V7.49984C18.7498 7.30093 18.8288 7.11017 18.9694 6.96951C19.1101 6.82886 19.3008 6.74984 19.4998 6.74984C19.6987 6.74984 19.8894 6.82886 20.0301 6.96951C20.1707 7.11017 20.2498 7.30093 20.2498 7.49984V8.99984H21.7498C21.9487 8.99984 22.1394 9.07886 22.2801 9.21951C22.4207 9.36016 22.4998 9.55093 22.4998 9.74984ZM17.0744 15.267C17.2025 15.4194 17.2648 15.6165 17.2475 15.8148C17.2303 16.0131 17.135 16.1965 16.9826 16.3245C16.8302 16.4526 16.6331 16.5148 16.4348 16.4976C16.2365 16.4804 16.0531 16.3851 15.9251 16.2327C14.0388 13.9864 11.4457 12.7498 8.62476 12.7498C5.80382 12.7498 3.21069 13.9864 1.32444 16.2327C1.19639 16.3849 1.01309 16.4801 0.814859 16.4973C0.616627 16.5144 0.419705 16.4521 0.267413 16.3241C0.11512 16.196 0.0199334 16.0127 0.00279138 15.8145C-0.0143506 15.6162 0.0479566 15.4193 0.176006 15.267C1.57663 13.6002 3.31851 12.4161 5.25444 11.7823C4.07873 11.0501 3.17349 9.95479 2.67569 8.66223C2.17789 7.36966 2.11461 5.95013 2.49543 4.61839C2.87624 3.28666 3.68043 2.11518 4.78632 1.2812C5.89222 0.447211 7.23964 -0.00390625 8.62476 -0.00390625C10.0099 -0.00390625 11.3573 0.447211 12.4632 1.2812C13.5691 2.11518 14.3733 3.28666 14.7541 4.61839C15.1349 5.95013 15.0716 7.36966 14.5738 8.66223C14.076 9.95479 13.1708 11.0501 11.9951 11.7823C13.931 12.4161 15.6729 13.6002 17.0744 15.267ZM8.62476 11.2498C9.58894 11.2498 10.5315 10.9639 11.3332 10.4283C12.1349 9.89259 12.7597 9.13121 13.1287 8.24043C13.4976 7.34963 13.5942 6.36943 13.4061 5.42378C13.218 4.47812 12.7537 3.60948 12.0719 2.9277C11.3901 2.24592 10.5215 1.78162 9.57582 1.59351C8.63016 1.40541 7.64996 1.50195 6.75917 1.87093C5.86838 2.23991 5.10701 2.86475 4.57134 3.66644C4.03567 4.46813 3.74976 5.41066 3.74976 6.37484C3.75124 7.66732 4.26534 8.90643 5.17925 9.82034C6.09317 10.7343 7.33228 11.2484 8.62476 11.2498Z" fill="white"/>
</svg>
