<svg width="20" height="17" viewBox="0 0 20 17" fill="none" xmlns="http://www.w3.org/2000/svg">
<path d="M15 2.99854H1.5C1.10218 2.99854 0.720644 3.15657 0.43934 3.43788C0.158035 3.71918 0 4.10071 0 4.49854V14.9985C0 15.3964 0.158035 15.7779 0.43934 16.0592C0.720644 16.3405 1.10218 16.4985 1.5 16.4985H15C15.3978 16.4985 15.7794 16.3405 16.0607 16.0592C16.342 15.7779 16.5 15.3964 16.5 14.9985V4.49854C16.5 4.10071 16.342 3.71918 16.0607 3.43788C15.7794 3.15657 15.3978 2.99854 15 2.99854ZM15 14.9985H1.5V4.49854H15V14.9985ZM19.5 1.49854V12.7485C19.5 12.9474 19.421 13.1382 19.2803 13.2789C19.1397 13.4195 18.9489 13.4985 18.75 13.4985C18.5511 13.4985 18.3603 13.4195 18.2197 13.2789C18.079 13.1382 18 12.9474 18 12.7485V1.49854H3.75C3.55109 1.49854 3.36032 1.41952 3.21967 1.27887C3.07902 1.13821 3 0.947448 3 0.748535C3 0.549623 3.07902 0.358857 3.21967 0.218205C3.36032 0.0775529 3.55109 -0.00146484 3.75 -0.00146484H18C18.3978 -0.00146484 18.7794 0.15657 19.0607 0.437875C19.342 0.719179 19.5 1.10071 19.5 1.49854Z" fill="#E8FFFD"/>
</svg>
