<svg width="20" height="16" viewBox="0 0 20 16" fill="none" xmlns="http://www.w3.org/2000/svg">
<path d="M18.75 0.748535H0.75C0.551088 0.748535 0.360322 0.827553 0.21967 0.968205C0.0790176 1.10886 0 1.29962 0 1.49854V14.2485C0 14.6464 0.158035 15.0279 0.43934 15.3092C0.720644 15.5905 1.10218 15.7485 1.5 15.7485H18C18.3978 15.7485 18.7794 15.5905 19.0607 15.3092C19.342 15.0279 19.5 14.6464 19.5 14.2485V1.49854C19.5 1.29962 19.421 1.10886 19.2803 0.968205C19.1397 0.827553 18.9489 0.748535 18.75 0.748535ZM1.5 6.74854H5.25V9.74854H1.5V6.74854ZM6.75 6.74854H18V9.74854H6.75V6.74854ZM18 2.24854V5.24854H1.5V2.24854H18ZM1.5 11.2485H5.25V14.2485H1.5V11.2485ZM18 14.2485H6.75V11.2485H18V14.2485Z" fill="#E8FFFD"/>
</svg>
